# xmcd CD database file
#
# Track frame offsets:
#	150
#	29410
#	61990
#	86972
#	119672
#	143745
#	174822
#	210092
#	224982
#	255222
#
# Disc length: 3697 seconds
#
# Revision: 1
# Processed by: cddbd v1.5.1PL0 Copyright (c) Steve Scherf et al.
# Submitted via: CDex 1.50
#
DISCID=8e0e6f0a
DTITLE=Kiyoshi Kitagawa. Kenny Baron. Brian blade - Ancestry
DYEAR=2004
DGENRE=Jazz
TTITLE0=Ancestry
TTITLE1=Equinox
TTITLE2=Time To Go
TTITLE3=I Wish I Could
TTITLE4=Tadd's Delight
TTITLE5=Mahjong
TTITLE6=Tell Me Why
TTITLE7=Hot House
TTITLE8=Pinocchio
TTITLE9=You've Changed
EXTD=YEAR: 2004
EXTT0=
EXTT1=
EXTT2=
EXTT3=
EXTT4=
EXTT5=
EXTT6=
EXTT7=
EXTT8=
EXTT9=
PLAYORDER=
